# xmcd
#
# Track frame offsets:
# 150
# 12030
# 23655
# 33785
# 45455
# 56222
# 68565
# 77627
# 88642
# 99210
# 110600
# 121455
# 132120
# 144855
# 158002
#
# Disc length: 2241 seconds
#
#
# Revision: 0
# Processed by: cddbd v1.5.2PL0 Copyright (c) Steve Scherf et al.
# Submitted via: FreeRIP 2.95 
#
DISCID=ac08bf0f
DTITLE=Living The Blues  New Orleans  CD 1
DYEAR=1900
DGENRE=Blues
TTITLE0=Fats Domino  The Fat Man
TTITLE1=Dave Bartolomew  Ain't Gonna Do It
TTITLE2=Archibald  Stack-A-Lee Pt. 1
TTITLE3=Jewel King  3X7 =21
TTITLE4=Joe Turner  Jumpin' Tonight
TTITLE5=Guitar Slim and His Playboys  Srandin' At The Station
TTITLE6=The Royal Kings  Bouncin' The Boogie
TTITLE7=Bobby Marchan  Have Mercy
TTITLE8=Little Sonny Jones  Winehead Baby
TTITLE9=T-Bone Walker  When The Sunn Goes Down
TTITLE10=Blanche Thomas  You Ain't So Such A Much
TTITLE11=Pee Wee Crayton  Every Dog Has His Dasy
TTITLE12=Roosvelt Sykers  Hush Oh Hush
TTITLE13=Boo Breeding  I Can't Fly
TTITLE14=Billy Tate  Single Life
EXTD=
EXTT0=
EXTT1=
EXTT2=
EXTT3=
EXTT4=
EXTT5=
EXTT6=
EXTT7=
EXTT8=
EXTT9=
EXTT10=
EXTT11=
EXTT12=
EXTT13=
EXTT14=
PLAYORDER=
